{
    "asset" : {
        "generator" : "Khronos glTF Blender I/O v1.8.19",
        "version" : "2.0"
    },
    "scene" : 0,
    "scenes" : [
        {
            "name" : "Scene",
            "nodes" : [
                0
            ]
        }
    ],
    "nodes" : [
        {
            "mesh" : 0,
            "name" : "\u52a8\u7269_\u91ce\u9e2d"
        }
    ],
    "materials" : [
        {
            "doubleSided" : true,
            "name" : "Mat3d66-4765576-13-90722",
            "pbrMetallicRoughness" : {
                "baseColorTexture" : {
                    "index" : 0
                },
                "metallicFactor" : 0
            }
        }
    ],
    "meshes" : [
        {
            "name" : "Obj3d66-4765576-12-652",
            "primitives" : [
                {
                    "attributes" : {
                        "POSITION" : 0,
                        "NORMAL" : 1,
                        "TEXCOORD_0" : 2
                    },
                    "indices" : 3,
                    "material" : 0
                }
            ]
        }
    ],
    "textures" : [
        {
            "sampler" : 0,
            "source" : 0
        }
    ],
    "images" : [
        {
            "bufferView" : 4,
            "mimeType" : "image/png",
            "name" : "3d66Model-4765576-files-5"
        }
    ],
    "accessors" : [
        {
            "bufferView" : 0,
            "componentType" : 5126,
            "count" : 912,
            "max" : [
                0.08584070205688477,
                0.23575781285762787,
                0.2412681132555008
            ],
            "min" : [
                -0.08584070205688477,
                -1.4901161415892261e-09,
                -0.2412681132555008
            ],
            "type" : "VEC3"
        },
        {
            "bufferView" : 1,
            "componentType" : 5126,
            "count" : 912,
            "type" : "VEC3"
        },
        {
            "bufferView" : 2,
            "componentType" : 5126,
            "count" : 912,
            "type" : "VEC2"
        },
        {
            "bufferView" : 3,
            "componentType" : 5123,
            "count" : 5328,
            "type" : "SCALAR"
        }
    ],
    "bufferViews" : [
        {
            "buffer" : 0,
            "byteLength" : 10944,
            "byteOffset" : 0
        },
        {
            "buffer" : 0,
            "byteLength" : 10944,
            "byteOffset" : 10944
        },
        {
            "buffer" : 0,
            "byteLength" : 7296,
            "byteOffset" : 21888
        },
        {
            "buffer" : 0,
            "byteLength" : 10656,
            "byteOffset" : 29184
        },
        {
            "buffer" : 0,
            "byteLength" : 386444,
            "byteOffset" : 39840
        }
    ],
    "samplers" : [
        {
            "magFilter" : 9729,
            "minFilter" : 9987
        }
    ],
    "buffers" : [
        {
            "byteLength" : 426284,
            "uri" : "data:application/octet-stream;base64,"
        }
    ]
}
